<svg xmlns="http://www.w3.org/2000/svg">
    <symbol id="icon-dropdown" viewBox="0 0 32 32">
        <path d="M2.60849 9.91421C3.38954 9.13317 4.65587 9.13317 5.43692 9.91421L17.4095 21.8868C18.1905 22.6678 18.1905 23.9342 17.4095 24.7152C16.6284 25.4963 15.3621 25.4963 14.5811 24.7152L2.60849 12.7426C1.82744 11.9616 1.82744 10.6953 2.60849 9.91421Z"></path><path d="M29.4142 9.91421C28.6332 9.13317 27.3668 9.13317 26.5858 9.91421L14.5962 21.9038C13.8151 22.6849 13.8151 23.9512 14.5962 24.7322C15.3772 25.5133 16.6436 25.5133 17.4246 24.7322L29.4142 12.7426C30.1953 11.9616 30.1953 10.6953 29.4142 9.91421Z"></path>
    </symbol>
    <symbol id="icon-menu" viewBox="0 0 32 32">
       <path d="M2 7.5C2 6.67157 2.67157 6 3.5 6H28.5C29.3284 6 30 6.67157 30 7.5C30 8.32843 29.3284 9 28.5 9H3.5C2.67157 9 2 8.32843 2 7.5Z"></path><path d="M2 24.5C2 23.6716 2.67157 23 3.5 23H28.5C29.3284 23 30 23.6716 30 24.5C30 25.3284 29.3284 26 28.5 26H3.5C2.67157 26 2 25.3284 2 24.5Z"></path><path d="M2 16C2 15.1716 2.67157 14.5 3.5 14.5H28.5C29.3284 14.5 30 15.1716 30 16C30 16.8284 29.3284 17.5 28.5 17.5H3.5C2.67157 17.5 2 16.8284 2 16Z"></path>
    </symbol>
    <symbol id="icon-code" viewBox="0 0 24 24">
       <path fill-rule="evenodd" clip-rule="evenodd" d="M14.4464 2.03283C15.0309 2.17896 15.3863 2.77125 15.2402 3.35575L10.8765 20.8103C10.7304 21.3948 10.1381 21.7502 9.5536 21.604C8.96909 21.4579 8.61372 20.8656 8.75984 20.2811L13.1235 2.82658C13.2696 2.24208 13.8619 1.8867 14.4464 2.03283ZM6.22593 6.68341C6.65196 7.10944 6.65196 7.80017 6.22593 8.22619L2.63369 11.8184L6.22593 15.4107C6.65196 15.8367 6.65196 16.5274 6.22593 16.9535C5.79991 17.3795 5.10918 17.3795 4.68316 16.9535L0.31952 12.5898C-0.106507 12.1638 -0.106507 11.4731 0.31952 11.0471L4.68316 6.68341C5.10918 6.25739 5.79991 6.25739 6.22593 6.68341ZM17.7741 6.68341C18.2001 6.25739 18.8908 6.25739 19.3168 6.68341L23.6805 11.0471C24.1065 11.4731 24.1065 12.1638 23.6805 12.5898L19.3168 16.9535C18.8908 17.3795 18.2001 17.3795 17.7741 16.9535C17.348 16.5274 17.348 15.8367 17.7741 15.4107L21.3663 11.8184L17.7741 8.22619C17.348 7.80017 17.348 7.10944 17.7741 6.68341Z"></path>
    </symbol>
    <symbol id="icon-play" viewBox="0 0 320.001 320.001">
		<path d="M295.84,146.049l-256-144c-4.96-2.784-11.008-2.72-15.904,0.128C19.008,5.057,16,10.305,16,16.001v288
	c0,5.696,3.008,10.944,7.936,13.824c2.496,1.44,5.28,2.176,8.064,2.176c2.688,0,5.408-0.672,7.84-2.048l256-144
	c5.024-2.848,8.16-8.16,8.16-13.952S300.864,148.897,295.84,146.049z"/>
		<g>
		</g>
		<g>
		</g>
		<g>
		</g>
		<g>
		</g>
		<g>
		</g>
		<g>
		</g>
		<g>
		</g>
		<g>
		</g>
		<g>
		</g>
		<g>
		</g>
		<g>
		</g>
		<g>
		</g>
		<g>
		</g>
		<g>
		</g>
		<g>
		</g>
    </symbol>
    <symbol id="icon-externallink" viewBox="0 0 100 100">
		<path fill="currentColor" d="M18.8,85.1h56l0,0c2.2,0,4-1.8,4-4v-32h-8v28h-48v-48h28v-8h-32l0,0c-2.2,0-4,1.8-4,4v56C14.8,83.3,16.6,85.1,18.8,85.1z"></path> <polygon fill="currentColor" points="45.7,48.7 51.3,54.3 77.2,28.5 77.2,37.2 85.2,37.2 85.2,14.9 62.8,14.9 62.8,22.9 71.5,22.9"></polygon>
    </symbol>
	<symbol id="icon-chek" viewBox="0 -46 417.81333 417">
		<path d="m159.988281 318.582031c-3.988281 4.011719-9.429687 6.25-15.082031 6.25s-11.09375-2.238281-15.082031-6.25l-120.449219-120.46875c-12.5-12.5-12.5-32.769531 0-45.246093l15.082031-15.085938c12.503907-12.5 32.75-12.5 45.25 0l75.199219 75.203125 203.199219-203.203125c12.503906-12.5 32.769531-12.5 45.25 0l15.082031 15.085938c12.5 12.5 12.5 32.765624 0 45.246093zm0 0"/>
    </symbol>
    <symbol id="icon-download" viewBox="0 0 24 24">
		<path d="m12 16c-.205 0-.401-.084-.542-.232l-5.25-5.5c-.455-.476-.117-1.268.542-1.268h2.75v-5.75c0-.689.561-1.25 1.25-1.25h2.5c.689 0 1.25.561 1.25 1.25v5.75h2.75c.659 0 .997.792.542 1.268l-5.25 5.5c-.141.148-.337.232-.542.232z"/><path d="m22.25 22h-20.5c-.965 0-1.75-.785-1.75-1.75v-.5c0-.965.785-1.75 1.75-1.75h20.5c.965 0 1.75.785 1.75 1.75v.5c0 .965-.785 1.75-1.75 1.75z"/>
    </symbol>
    <symbol id="icon-book" viewBox="0 0 296.999 296.999">
		<g>
	<g>
		<g>
			<path d="M45.432,35.049c-0.008,0-0.017,0-0.025,0c-2.809,0-5.451,1.095-7.446,3.085c-2.017,2.012-3.128,4.691-3.128,7.543
				v159.365c0,5.844,4.773,10.61,10.641,10.625c24.738,0.059,66.184,5.215,94.776,35.136V84.023c0-1.981-0.506-3.842-1.461-5.382
				C115.322,40.849,70.226,35.107,45.432,35.049z"/>
			<path d="M262.167,205.042V45.676c0-2.852-1.111-5.531-3.128-7.543c-1.995-1.99-4.639-3.085-7.445-3.085c-0.009,0-0.018,0-0.026,0
				c-24.793,0.059-69.889,5.801-93.357,43.593c-0.955,1.54-1.46,3.401-1.46,5.382v166.779
				c28.592-29.921,70.038-35.077,94.776-35.136C257.394,215.651,262.167,210.885,262.167,205.042z"/>
			<path d="M286.373,71.801h-7.706v133.241c0,14.921-12.157,27.088-27.101,27.125c-20.983,0.05-55.581,4.153-80.084,27.344
				c42.378-10.376,87.052-3.631,112.512,2.171c3.179,0.724,6.464-0.024,9.011-2.054c2.538-2.025,3.994-5.052,3.994-8.301V82.427
				C297,76.568,292.232,71.801,286.373,71.801z"/>
			<path d="M18.332,205.042V71.801h-7.706C4.768,71.801,0,76.568,0,82.427v168.897c0,3.25,1.456,6.276,3.994,8.301
				c2.545,2.029,5.827,2.78,9.011,2.054c25.46-5.803,70.135-12.547,112.511-2.171c-24.502-23.19-59.1-27.292-80.083-27.342
				C30.49,232.13,18.332,219.963,18.332,205.042z"/>
		</g>
	</g>
</g>
<g>
</g>
<g>
</g>
<g>
</g>
<g>
</g>
<g>
</g>
<g>
</g>
<g>
</g>
<g>
</g>
<g>
</g>
<g>
</g>
<g>
</g>
<g>
</g>
<g>
</g>
<g>
</g>
<g>
</g>
    </symbol>
    <symbol id="icon-plays" viewBox="33">
		
    </symbol>
</svg>