<?xml version="1.0" encoding="UTF-8"?>
<!DOCTYPE svg PUBLIC "-//W3C//DTD SVG 1.1//EN" "http://www.w3.org/Graphics/SVG/1.1/DTD/svg11.dtd">
<!-- Creator: CorelDRAW 2019 (64-Bit) -->
<svg xmlns="http://www.w3.org/2000/svg" xml:space="preserve" width="49.2519mm" height="56.8047mm" version="1.1" shape-rendering="geometricPrecision" text-rendering="geometricPrecision" image-rendering="optimizeQuality" fill-rule="evenodd" clip-rule="evenodd"
viewBox="0 0 262.09 302.28"
 xmlns:xlink="http://www.w3.org/1999/xlink">
 <g id="Capa_x0020_1">
  <metadata id="CorelCorpID_0Corel-Layer"/>
  <g id="_2079471543824">
   <path fill="#2A3B47" d="M242.8 195.31c-0.12,0.3 -0.38,0.53 -0.59,0.79 -23.5,22.99 -57.29,35.13 -94.05,44.13 -36.43,7.77 -80.61,34.89 -102.6,62.06 10.25,-40.63 38.79,-78.45 140.38,-105.08 -86.96,7.7 -133,44.33 -162.58,92.12 -2.79,-43.05 10.96,-84.87 156.24,-116.94 -77.4,10.38 -139.75,30.71 -173.75,69.78 1.55,-43.33 35.06,-78.59 173.2,-87.43 -66.88,-4.06 -118.09,6.36 -155.55,29.51 13.43,-28.88 46.23,-46.78 108.94,-47.71 45.32,2.07 72.92,-17.96 56.82,-32.54 96.28,-25.72 70.67,49.62 53.54,91.33z"/>
   <path fill="#008DF2" d="M57.57 55.71c-7.65,7.78 -16.89,13.27 -27.86,16.27 -2.11,-16.23 17.23,-25.72 29.1,-32.48 28.68,-13.58 55.41,-27.03 67.85,-39.51 -2.99,12.92 -5.84,21.7 -18.48,30.89 122.79,-12.64 189.21,92.9 134.63,164.42 15.3,-40.05 -6.85,-72.19 -53.54,-91.33 -39.14,-19.67 -127.87,-23.39 -188.72,21.31 -1.74,-13.04 0.14,-25.67 13.55,-36.03 16.92,-12.76 42.01,-22.96 43.47,-33.55z"/>
  </g>
 </g>
</svg>
