<?xml version="1.0" encoding="UTF-8"?>
<!DOCTYPE svg PUBLIC "-//W3C//DTD SVG 1.1//EN" "http://www.w3.org/Graphics/SVG/1.1/DTD/svg11.dtd">
<!-- Creator: CorelDRAW 2019 (64-Bit) -->
<svg xmlns="http://www.w3.org/2000/svg" xml:space="preserve" width="252.696mm" height="56.8047mm" version="1.1" shape-rendering="geometricPrecision" text-rendering="geometricPrecision" image-rendering="optimizeQuality" fill-rule="evenodd" clip-rule="evenodd"
viewBox="0 0 12176.02 2737.11"
 xmlns:xlink="http://www.w3.org/1999/xlink">
 <g id="Capa_x0020_1">
  <metadata id="CorelCorpID_0Corel-Layer"/>
  <path fill="white" fill-rule="nonzero" d="M3634.97 1387.13c0,195.41 -55.44,345.09 -166.58,449.04 -111.43,103.94 -271.91,156.05 -482.02,156.05l-335.94 0 0 -1187.44 372.53 0c193.75,0 344.26,51.28 451.53,153.55 106.99,102.28 160.49,245.31 160.49,428.8zm-261.38 6.37c0,-255 -112.53,-382.51 -337.6,-382.51l-133.88 0 0 773.33 108.1 0c242.26,0 363.38,-130.27 363.38,-390.82z"/>
  <path id="1" fill="white" fill-rule="nonzero" d="M4238.12 1243.83c-52.66,0 -93.69,16.63 -123.62,49.89 -29.66,33.26 -46.84,80.39 -51.28,141.36l347.86 0c-1.11,-60.98 -16.91,-108.1 -47.95,-141.36 -30.77,-33.26 -72.62,-49.89 -125.01,-49.89zm34.92 765.02c-146.35,0 -260.55,-40.47 -342.87,-121.13 -82.32,-80.66 -123.34,-194.86 -123.34,-342.6 0,-152.17 37.97,-269.69 113.92,-352.85 76.23,-83.15 181.28,-124.73 315.71,-124.73 128.33,0 228.12,36.59 299.64,109.48 71.51,73.18 107.27,173.8 107.27,302.69l0 120.02 -585.68 0c2.77,70.4 23.56,125.56 62.37,165.2 39.08,39.64 93.96,59.32 164.37,59.32 54.6,0 106.44,-5.82 155.22,-17.19 48.51,-11.36 99.51,-29.38 152.73,-54.32l0 191.81c-43.52,21.62 -89.81,37.97 -139.14,48.51 -49.06,10.53 -109.21,15.79 -180.17,15.79z"/>
  <path id="2" fill="white" fill-rule="nonzero" d="M5027.53 1992.22l-346.2 -908.04 259.17 0 175.45 517.5c19.4,65.41 31.6,127.5 36.59,185.99l4.71 0c2.77,-52.11 14.97,-114.2 36.59,-185.99l174.9 -517.5 258.89 0 -345.92 908.04 -254.17 0z"/>
  <path id="3" fill="white" fill-rule="nonzero" d="M6208.87 804.78l369.48 0c168.53,0 290.76,23.84 366.71,71.79 76.22,47.95 114.2,124.18 114.2,228.95 0,70.96 -16.63,129.17 -49.89,174.63 -33.26,45.46 -77.61,72.9 -132.77,82.04l0 8.04c75.11,16.91 129.44,48.23 162.7,94.24 33.54,46.01 50.17,107.27 50.17,183.49 0,108.38 -39.36,192.64 -117.52,253.34 -78.16,60.7 -184.32,90.91 -318.76,90.91l-444.32 0 0 -1187.44zm251.68 470.65l146.36 0c68.19,0 117.52,-10.53 148.29,-31.6 30.49,-21.34 45.74,-56.27 45.74,-105.05 0,-45.74 -16.63,-78.16 -49.9,-98.12 -33.26,-19.68 -85.92,-29.66 -157.99,-29.66l-132.49 0 0 264.43zm0 199.57l0 309.33 164.09 0c69.57,0 120.57,-13.3 153.56,-39.91 33.26,-26.33 49.62,-67.08 49.62,-121.69 0,-98.4 -70.4,-147.73 -211.21,-147.73l-156.06 0z"/>
  <path id="4" fill="white" fill-rule="nonzero" d="M7296.25 849.13c0,-80.66 44.9,-120.85 134.71,-120.85 89.81,0 134.71,40.19 134.71,120.85 0,38.53 -11.09,68.46 -33.54,89.81 -22.45,21.34 -56.27,32.15 -101.17,32.15 -89.81,0 -134.71,-40.75 -134.71,-121.96zm258.06 1143.09l-247.52 0 0 -908.04 247.52 0 0 908.04z"/>
  <path id="5" fill="white" fill-rule="nonzero" d="M8447.38 1722.8c0,93.13 -32.15,164.09 -97.01,212.87 -64.58,48.78 -161.32,73.17 -290.21,73.17 -65.97,0 -122.24,-4.43 -168.8,-13.3 -46.57,-9.15 -90.09,-22.17 -130.83,-39.64l0 -204.56c46.01,21.62 97.85,39.64 155.5,54.33 57.65,14.69 108.38,21.9 152.17,21.9 90.08,0 134.98,-26.05 134.98,-78.16 0,-19.4 -6.1,-35.2 -18.02,-47.39 -11.92,-12.2 -32.43,-26.06 -61.53,-41.58 -29.38,-15.25 -68.19,-33.26 -116.97,-54.05 -69.85,-29.1 -121.13,-56.27 -153.83,-81.21 -32.71,-24.95 -56.54,-53.5 -71.51,-85.65 -14.97,-32.43 -22.17,-72.06 -22.17,-119.18 0,-80.38 31.04,-142.75 93.69,-186.82 62.37,-44.07 151.06,-65.97 265.81,-65.97 109.49,0 215.65,23.84 319.03,71.24l-74.56 178.23c-45.46,-19.4 -87.86,-35.48 -127.5,-47.95 -39.36,-12.47 -79.83,-18.57 -120.85,-18.57 -73.17,0 -109.76,19.68 -109.76,59.32 0,22.17 11.92,41.58 35.48,57.65 23.56,16.35 75.12,40.47 154.67,72.34 70.68,28.83 122.79,55.72 155.78,80.66 32.99,24.95 57.38,53.49 73.18,85.92 15.52,32.71 23.28,71.52 23.28,116.42z"/>
  <path id="6" fill="white" fill-rule="nonzero" d="M9478.49 1992.22l-247.8 0 0 -530.25c0,-65.42 -11.64,-114.75 -34.92,-147.46 -23.28,-32.71 -60.15,-49.06 -111.15,-49.06 -69.01,0 -119.18,23 -149.95,69.29 -30.77,46.29 -46.29,123.07 -46.29,230.34l0 427.14 -247.52 0 0 -908.04 189.04 0 33.26 116.41 13.86 0c27.72,-43.79 65.69,-77.06 114.2,-99.51 48.23,-22.45 103.38,-33.54 164.92,-33.54 105.61,0 185.71,28.55 240.32,85.65 54.6,57.1 82.04,139.42 82.04,247.24l0 591.78z"/>
  <path id="7" fill="white" fill-rule="nonzero" d="M10109.91 1243.83c-52.66,0 -93.69,16.63 -123.62,49.89 -29.66,33.26 -46.84,80.39 -51.28,141.36l347.86 0c-1.11,-60.98 -16.91,-108.1 -47.95,-141.36 -30.77,-33.26 -72.62,-49.89 -125.01,-49.89zm34.92 765.02c-146.35,0 -260.55,-40.47 -342.87,-121.13 -82.32,-80.66 -123.34,-194.86 -123.34,-342.6 0,-152.17 37.97,-269.69 113.92,-352.85 76.23,-83.15 181.28,-124.73 315.71,-124.73 128.33,0 228.12,36.59 299.64,109.48 71.51,73.18 107.27,173.8 107.27,302.69l0 120.02 -585.68 0c2.77,70.4 23.56,125.56 62.37,165.2 39.08,39.64 93.96,59.32 164.37,59.32 54.6,0 106.44,-5.82 155.22,-17.19 48.51,-11.36 99.51,-29.38 152.73,-54.32l0 191.81c-43.52,21.62 -89.81,37.97 -139.14,48.51 -49.06,10.53 -109.21,15.79 -180.17,15.79z"/>
  <path id="8" fill="white" fill-rule="nonzero" d="M11349.46 1722.8c0,93.13 -32.15,164.09 -97.01,212.87 -64.58,48.78 -161.32,73.17 -290.21,73.17 -65.97,0 -122.24,-4.43 -168.8,-13.3 -46.57,-9.15 -90.09,-22.17 -130.83,-39.64l0 -204.56c46.01,21.62 97.85,39.64 155.5,54.33 57.65,14.69 108.38,21.9 152.17,21.9 90.08,0 134.98,-26.05 134.98,-78.16 0,-19.4 -6.1,-35.2 -18.02,-47.39 -11.92,-12.2 -32.43,-26.06 -61.53,-41.58 -29.38,-15.25 -68.19,-33.26 -116.97,-54.05 -69.85,-29.1 -121.13,-56.27 -153.83,-81.21 -32.71,-24.95 -56.54,-53.5 -71.51,-85.65 -14.97,-32.43 -22.17,-72.06 -22.17,-119.18 0,-80.38 31.04,-142.75 93.69,-186.82 62.37,-44.07 151.06,-65.97 265.81,-65.97 109.49,0 215.65,23.84 319.03,71.24l-74.56 178.23c-45.46,-19.4 -87.86,-35.48 -127.5,-47.95 -39.36,-12.47 -79.83,-18.57 -120.85,-18.57 -73.17,0 -109.76,19.68 -109.76,59.32 0,22.17 11.92,41.58 35.48,57.65 23.56,16.35 75.12,40.47 154.67,72.34 70.68,28.83 122.79,55.72 155.78,80.66 32.99,24.95 57.38,53.49 73.18,85.92 15.52,32.71 23.28,71.52 23.28,116.42z"/>
  <path id="9" fill="white" fill-rule="nonzero" d="M12176.02 1722.8c0,93.13 -32.15,164.09 -97.01,212.87 -64.58,48.78 -161.32,73.17 -290.21,73.17 -65.97,0 -122.24,-4.43 -168.8,-13.3 -46.57,-9.15 -90.09,-22.17 -130.83,-39.64l0 -204.56c46.01,21.62 97.85,39.64 155.5,54.33 57.65,14.69 108.38,21.9 152.17,21.9 90.08,0 134.98,-26.05 134.98,-78.16 0,-19.4 -6.1,-35.2 -18.02,-47.39 -11.92,-12.2 -32.43,-26.06 -61.53,-41.58 -29.38,-15.25 -68.19,-33.26 -116.97,-54.05 -69.85,-29.1 -121.13,-56.27 -153.83,-81.21 -32.71,-24.95 -56.54,-53.5 -71.51,-85.65 -14.97,-32.43 -22.17,-72.06 -22.17,-119.18 0,-80.38 31.04,-142.75 93.69,-186.82 62.37,-44.07 151.06,-65.97 265.81,-65.97 109.49,0 215.65,23.84 319.03,71.24l-74.56 178.23c-45.46,-19.4 -87.86,-35.48 -127.5,-47.95 -39.36,-12.47 -79.83,-18.57 -120.85,-18.57 -73.17,0 -109.76,19.68 -109.76,59.32 0,22.17 11.92,41.58 35.48,57.65 23.56,16.35 75.12,40.47 154.67,72.34 70.68,28.83 122.79,55.72 155.78,80.66 32.99,24.95 57.38,53.49 73.18,85.92 15.52,32.71 23.28,71.52 23.28,116.42z"/>
  <g id="_1644747914576">
   <path fill="white" d="M2198.55 1768.5c-1.13,2.75 -3.48,4.76 -5.31,7.12 -212.79,208.21 -518.77,318.06 -851.58,399.58 -329.83,70.38 -729.89,315.88 -929.02,561.91 92.78,-367.87 351.26,-710.36 1271.15,-951.49 -787.46,69.73 -1204.28,401.37 -1472.19,834.12 -25.22,-389.77 99.22,-768.46 1414.75,-1058.88 -700.83,94.02 -1265.46,278.06 -1573.33,631.83 14.05,-392.38 317.43,-711.67 1568.34,-791.67 -605.56,-36.78 -1069.32,57.6 -1408.51,267.22 121.64,-261.52 418.62,-423.59 986.45,-432.04 410.33,18.71 660.33,-162.66 514.46,-294.68 871.83,-232.92 639.89,449.33 484.79,826.98z"/>
   <path fill="white" d="M521.26 504.47c-69.28,70.49 -152.98,120.15 -252.23,147.34 -19.15,-146.93 155.99,-232.93 263.47,-294.06 259.73,-123 501.72,-244.79 614.34,-357.75 -27.06,116.96 -52.86,196.46 -167.32,279.7 1111.84,-114.48 1713.29,841.21 1219.02,1488.79 138.54,-362.67 -62.02,-653.65 -484.79,-826.98 -354.45,-178.1 -1157.83,-211.76 -1708.81,192.92 -15.74,-118.09 1.25,-232.48 122.68,-326.21 153.19,-115.57 380.42,-207.88 393.63,-303.76z"/>
  </g>
 </g>
</svg>
