<?xml version="1.0" encoding="UTF-8"?>
<!DOCTYPE svg PUBLIC "-//W3C//DTD SVG 1.1//EN" "http://www.w3.org/Graphics/SVG/1.1/DTD/svg11.dtd">
<!-- Creator: CorelDRAW 2020 (64-Bit) -->
<svg xmlns="http://www.w3.org/2000/svg" xml:space="preserve" width="57.593mm" height="15.0356mm" version="1.1" style="shape-rendering:geometricPrecision; text-rendering:geometricPrecision; image-rendering:optimizeQuality; fill-rule:evenodd; clip-rule:evenodd"
viewBox="0 0 621.28 162.2"
 xmlns:xlink="http://www.w3.org/1999/xlink"
 xmlns:xodm="http://www.corel.com/coreldraw/odm/2003">
 <defs>
  <style type="text/css">
   <![CDATA[
    .fil2 {fill:none}
    .fil3 {fill:#0779E4}
    .fil4 {fill:#0C5DA8}
    .fil1 {fill:#1F3952}
    .fil0 {fill:#294B6B}
    .fil5 {fill:#23405C;fill-rule:nonzero}
   ]]>
  </style>
    <clipPath id="id0">
     <path d="M13.69 109.14l30.11 -18.36c4.44,-2.16 9.15,-1.96 13.09,-0l36.76 21.52 36.61 -21.56c4.16,-1.95 8.23,-1.84 11.84,0.05l32.18 18.46c2.86,1.73 2.97,5.55 0.02,7.49l-73.36 43.13c-5.4,3 -7.71,3.18 -13.43,0.13l-73.68 -43.88c-2.16,-1.13 -2.83,-4.98 -0.15,-6.97z"/>
    </clipPath>
    <clipPath id="id1">
     <path d="M2.01 22.79l34.48 -21.02c5.09,-2.47 10.47,-2.25 14.99,-0l42.09 24.64 41.92 -24.69c4.76,-2.23 9.43,-2.11 13.56,0.06l36.85 21.13c3.28,1.98 3.4,6.35 0.02,8.57l-84 49.38c-6.18,3.44 -8.83,3.64 -15.38,0.15l-84.37 -50.24c-2.47,-1.3 -3.24,-5.71 -0.17,-7.98z"/>
    </clipPath>
 </defs>
 <g id="Capa_x0020_1">
  <metadata id="CorelCorpID_0Corel-Layer"/>
  <g id="_1259383235136">
   <path class="fil0" d="M13.69 109.14l30.11 -18.36c4.44,-2.16 9.15,-1.96 13.09,-0l36.76 21.52 36.61 -21.56c4.16,-1.95 8.23,-1.84 11.84,0.05l32.18 18.46c2.86,1.73 2.97,5.55 0.02,7.49l-73.36 43.13c-5.4,3 -7.71,3.18 -13.43,0.13l-73.68 -43.88c-2.16,-1.13 -2.83,-4.98 -0.15,-6.97z"/>
   <g style="clip-path:url(#id0)">
    <g>
     <polygon id="1" class="fil1" points="51.05,138.26 93.64,112.3 135.31,139.67 180.81,170.08 95.11,179.9 43.39,157.25 "/>
    </g>
   </g>
   <path class="fil2" d="M13.69 109.14l30.11 -18.36c4.44,-2.16 9.15,-1.96 13.09,-0l36.76 21.52 36.61 -21.56c4.16,-1.95 8.23,-1.84 11.84,0.05l32.18 18.46c2.86,1.73 2.97,5.55 0.02,7.49l-73.36 43.13c-5.4,3 -7.71,3.18 -13.43,0.13l-73.68 -43.88c-2.16,-1.13 -2.83,-4.98 -0.15,-6.97z"/>
   <path class="fil3" d="M2.01 22.79l34.48 -21.02c5.09,-2.47 10.47,-2.25 14.99,-0l42.09 24.64 41.92 -24.69c4.76,-2.23 9.43,-2.11 13.56,0.06l36.85 21.13c3.28,1.98 3.4,6.35 0.02,8.57l-84 49.38c-6.18,3.44 -8.83,3.64 -15.38,0.15l-84.37 -50.24c-2.47,-1.3 -3.24,-5.71 -0.17,-7.98z"/>
   <g style="clip-path:url(#id1)">
    <g>
     <polygon id="1" class="fil4" points="44.79,56.13 93.56,26.41 141.28,57.75 250.95,97.52 92.88,127.46 -75.27,112.12 "/>
    </g>
   </g>
   <path class="fil2" d="M2.01 22.79l34.48 -21.02c5.09,-2.47 10.47,-2.25 14.99,-0l42.09 24.64 41.92 -24.69c4.76,-2.23 9.43,-2.11 13.56,0.06l36.85 21.13c3.28,1.98 3.4,6.35 0.02,8.57l-84 49.38c-6.18,3.44 -8.83,3.64 -15.38,0.15l-84.37 -50.24c-2.47,-1.3 -3.24,-5.71 -0.17,-7.98z"/>
  </g>
  <path class="fil5" d="M252.07 123.54l-5.85 -19.13 -29.46 0 -5.85 19.13 -18.47 0 28.52 -80.81 20.94 0 28.64 80.81 -18.47 0zm-9.94 -33.5l-5.87 -18.69c-0.36,-1.24 -0.85,-2.85 -1.45,-4.81 -0.62,-1.96 -1.23,-3.96 -1.83,-6 -0.6,-2.04 -1.09,-3.81 -1.47,-5.32 -0.36,1.51 -0.87,3.38 -1.51,5.58 -0.64,2.23 -1.26,4.32 -1.85,6.3 -0.6,1.98 -1.02,3.4 -1.28,4.24l-5.79 18.69 21.05 0zm54.1 33.5l-16.85 0 0 -86.02 16.85 0 0 86.02zm90.25 -62.25c7.02,0 12.3,1.77 15.9,5.32 3.58,3.57 5.38,9.26 5.38,17.09l0 39.84 -16.9 0 0 -35.58c0,-4.36 -0.75,-7.64 -2.26,-9.87 -1.51,-2.21 -3.85,-3.32 -7.02,-3.32 -4.47,0 -7.64,1.57 -9.51,4.72 -1.89,3.13 -2.83,7.64 -2.83,13.49l0 30.56 -16.85 0 0 -35.58c0,-2.91 -0.34,-5.34 -1,-7.3 -0.66,-1.96 -1.68,-3.43 -3.04,-4.41 -1.36,-0.98 -3.11,-1.47 -5.24,-1.47 -3.13,0 -5.6,0.77 -7.38,2.32 -1.79,1.53 -3.07,3.81 -3.83,6.81 -0.76,3 -1.13,6.66 -1.13,10.98l0 28.65 -16.85 0 0 -61.12 12.87 0 2.28 7.92 0.92 0c1.26,-2.13 2.83,-3.87 4.74,-5.19 1.89,-1.32 3.98,-2.3 6.26,-2.92 2.28,-0.62 4.6,-0.94 6.96,-0.94 4.55,0 8.38,0.74 11.53,2.21 3.15,1.47 5.58,3.75 7.28,6.85l1.49 0c1.83,-3.17 4.43,-5.47 7.81,-6.91 3.38,-1.43 6.85,-2.15 10.41,-2.15zm55.44 1.13l0 61.12 -16.85 0 0 -61.12 16.85 0zm-8.39 -24.22c2.51,0 4.66,0.58 6.47,1.74 1.79,1.17 2.7,3.34 2.7,6.49 0,3.15 -0.91,5.3 -2.7,6.51 -1.81,1.19 -3.96,1.79 -6.47,1.79 -2.55,0 -4.72,-0.6 -6.49,-1.79 -1.79,-1.21 -2.68,-3.36 -2.68,-6.51 0,-3.15 0.89,-5.32 2.68,-6.49 1.77,-1.15 3.94,-1.74 6.49,-1.74zm60.57 23.09c0.85,0 1.83,0.04 2.96,0.13 1.11,0.09 2.04,0.23 2.74,0.36l-1.28 15.81c-0.55,-0.17 -1.34,-0.32 -2.34,-0.42 -1.02,-0.09 -1.89,-0.13 -2.62,-0.13 -2.19,0 -4.28,0.26 -6.34,0.81 -2.04,0.55 -3.87,1.43 -5.49,2.64 -1.62,1.23 -2.91,2.81 -3.85,4.79 -0.94,1.98 -1.42,4.41 -1.42,7.28l0 30.98 -16.85 0 0 -61.12 12.77 0 2.47 10.41 0.83 0c1.23,-2.09 2.74,-4.02 4.57,-5.77 1.83,-1.75 3.91,-3.15 6.24,-4.21 2.34,-1.04 4.87,-1.57 7.6,-1.57zm73.06 31.62c0,5.09 -0.68,9.62 -2.08,13.56 -1.38,3.92 -3.38,7.26 -6.02,9.98 -2.62,2.72 -5.79,4.75 -9.51,6.15 -3.7,1.38 -7.87,2.07 -12.51,2.07 -4.36,0 -8.34,-0.7 -11.98,-2.07 -3.62,-1.4 -6.77,-3.43 -9.45,-6.15 -2.66,-2.72 -4.73,-6.06 -6.19,-9.98 -1.45,-3.94 -2.17,-8.47 -2.17,-13.56 0,-6.79 1.21,-12.53 3.64,-17.24 2.43,-4.7 5.89,-8.26 10.39,-10.72 4.49,-2.43 9.85,-3.66 16.07,-3.66 5.79,0 10.92,1.23 15.39,3.66 4.47,2.45 8,6.02 10.56,10.72 2.55,4.72 3.83,10.45 3.83,17.24zm-42.71 0c0,3.98 0.43,7.32 1.32,10.04 0.89,2.72 2.26,4.75 4.15,6.13 1.87,1.38 4.32,2.06 7.34,2.06 3,0 5.41,-0.68 7.28,-2.06 1.85,-1.38 3.21,-3.41 4.07,-6.13 0.87,-2.72 1.3,-6.06 1.3,-10.04 0,-4.02 -0.43,-7.36 -1.3,-10.02 -0.87,-2.66 -2.23,-4.66 -4.11,-6 -1.87,-1.34 -4.32,-2 -7.36,-2 -4.45,0 -7.68,1.49 -9.7,4.49 -2,3.02 -3,7.51 -3,13.53zm91.13 -31.62c0.85,0 1.83,0.04 2.96,0.13 1.11,0.09 2.04,0.23 2.74,0.36l-1.28 15.81c-0.55,-0.17 -1.34,-0.32 -2.34,-0.42 -1.02,-0.09 -1.89,-0.13 -2.62,-0.13 -2.19,0 -4.28,0.26 -6.34,0.81 -2.04,0.55 -3.87,1.43 -5.49,2.64 -1.62,1.23 -2.91,2.81 -3.85,4.79 -0.94,1.98 -1.42,4.41 -1.42,7.28l0 30.98 -16.85 0 0 -61.12 12.77 0 2.47 10.41 0.83 0c1.23,-2.09 2.74,-4.02 4.57,-5.77 1.83,-1.75 3.91,-3.15 6.24,-4.21 2.34,-1.04 4.87,-1.57 7.6,-1.57z"/>
 </g>
</svg>
